<?xml version="1.0" encoding="UTF-8" standalone="no"?>
<svg
   xmlns:dc="http://purl.org/dc/elements/1.1/"
   xmlns:cc="http://creativecommons.org/ns#"
   xmlns:rdf="http://www.w3.org/1999/02/22-rdf-syntax-ns#"
   xmlns:svg="http://www.w3.org/2000/svg"
   xmlns="http://www.w3.org/2000/svg"
   id="svg8"
   version="1.1"
   viewBox="0 0 105.83334 52.916672"
   height="52.916672mm"
   width="105.83334mm">
  <defs
     id="defs2" />
  <metadata
     id="metadata5">
    <rdf:RDF>
      <cc:Work
         rdf:about="">
        <dc:format>image/svg+xml</dc:format>
        <dc:type
           rdf:resource="http://purl.org/dc/dcmitype/StillImage" />
        <dc:title></dc:title>
      </cc:Work>
    </rdf:RDF>
  </metadata>
  <g
     transform="translate(-40.821429,-159.41666)"
     id="layer1">
    <path
       id="path832"
       d="m 40.821429,185.87499 v -26.45833 h 52.91667 52.916671 v 26.45833 26.45834 H 93.738099 40.821429 Z m 59.002087,21.27962 c 6.253764,-1.59212 11.709594,-6.08442 14.436474,-11.88691 1.64069,-3.49121 2.0764,-5.46656 2.07176,-9.39271 -0.005,-3.91961 -0.43928,-5.955 -1.96849,-9.21824 -2.02705,-4.32561 -5.61628,-8.12946 -9.53949,-10.10989 -1.88223,-0.95014 -2.70736,-0.98048 -3.55707,-0.13077 -1.299991,1.29999 -0.72747,2.52166 1.85979,3.96854 3.67775,2.05671 6.92161,5.99549 8.24367,10.00965 0.60968,1.85117 0.71883,2.64417 0.73615,5.34842 0.0181,2.8217 -0.0651,3.43571 -0.74754,5.51785 -1.78172,5.43615 -6.0254,9.70805 -11.382216,11.45789 -3.007273,0.98235 -7.556453,1.04076 -10.471789,0.13445 -5.578176,-1.73412 -10.020933,-6.06453 -11.818245,-11.5194 -0.60198,-1.82703 -0.711856,-2.62966 -0.729128,-5.3262 -0.02339,-3.65093 0.522978,-5.8913 2.161567,-8.86355 1.176115,-2.13336 4.418473,-5.41712 6.528586,-6.61195 2.085044,-1.18063 2.534304,-1.67018 2.534304,-2.76155 0,-0.66454 -0.186272,-1.05336 -0.69714,-1.45521 -0.938864,-0.73851 -1.31181,-0.69909 -3.434499,0.36307 -7.06119,3.53328 -11.84057,11.97955 -11.386707,20.12294 0.510866,9.1661 5.995422,16.54117 14.740524,19.82156 3.293112,1.23529 8.740473,1.46863 12.419489,0.53201 z m -4.252257,-12.40629 c 0.411703,-0.2129 0.822508,-0.57982 0.912903,-0.81539 0.271754,-0.70818 0.188344,-15.9854 -0.09012,-16.50571 -0.139959,-0.26152 -0.603983,-0.62026 -1.031163,-0.7972 -1.017932,-0.42164 -2.320206,0.19938 -2.613137,1.24614 -0.111249,0.39754 -0.202271,4.05654 -0.202271,8.13113 0,7.86582 0.07364,8.37803 1.274067,8.86169 0.803394,0.3237 0.903824,0.31677 1.749718,-0.12066 z"
       style="fill:#e65100;fill-opacity:1;stroke-width:0.26458335" />
    <path
       id="path21"
       d=""
       style="fill:#000000;stroke-width:0.26458335" />
    <path
       transform="matrix(0.26458333,0,0,0.26458333,40.821429,159.41666)"
       id="path855"
       d="m 182.83909,179.60815 c -20.51358,-4.96772 -43.61338,-23.47583 -52.80785,-42.31092 -9.71492,-19.90123 -11.47041,-44.301931 -4.60376,-63.990593 6.76396,-19.394238 22.11605,-37.108485 39.60027,-45.693402 l 7.51333,-3.689113 3.03131,3.031305 c 4.68058,4.680582 2.58535,8.807987 -8.11579,15.987335 -29.46554,19.76831 -39.80752,55.442096 -25.04203,86.380388 18.96498,39.73754 72.62751,50.35285 104.99598,20.7699 9.8274,-8.98169 15.56608,-17.64243 19.47679,-29.39411 2.56506,-7.70802 2.9935,-11.73864 2.54259,-23.919846 -0.49785,-13.448843 -0.97375,-15.522737 -5.80536,-25.298855 -6.06482,-12.271324 -15.51477,-22.766014 -27.27194,-30.286987 -8.75685,-5.601686 -10.85799,-8.557573 -8.61294,-12.11671 4.87082,-7.721852 15.80768,-3.427506 32.08643,12.598703 19.47941,19.1772 27.85274,43.658754 24.06558,70.361745 -4.51719,31.85028 -29.26102,59.2562 -60.95326,67.51098 -9.79584,2.55149 -29.68847,2.58135 -40.09935,0.0602 z"
       style="fill:#ffffff;fill-opacity:1;stroke:#ffffff;stroke-width:1.02047253;stroke-miterlimit:4;stroke-dasharray:none;stroke-opacity:1" />
    <path
       transform="matrix(0.26458333,0,0,0.26458333,40.821429,159.41666)"
       id="path857"
       d="m 199.01754,132.25999 c -1.96206,-1.96206 -2.21987,-6.47441 -1.88775,-33.041239 0.36233,-28.984594 0.55032,-30.874548 3.24178,-32.591709 1.88948,-1.205493 3.94577,-1.40065 6.07143,-0.576223 3.1992,1.240793 3.21428,1.395279 3.21428,32.920902 0,28.490619 -0.25128,31.865009 -2.5,33.572029 -3.32679,2.5254 -5.40296,2.45302 -8.13974,-0.28376 z"
       style="fill:#ffffff;fill-opacity:1;stroke:#ffffff;stroke-width:1.02047253;stroke-miterlimit:4;stroke-dasharray:none;stroke-opacity:1" />
  </g>
</svg>
