<?xml version="1.0" encoding="UTF-8" standalone="no"?>
<svg
   xmlns:dc="http://purl.org/dc/elements/1.1/"
   xmlns:cc="http://creativecommons.org/ns#"
   xmlns:rdf="http://www.w3.org/1999/02/22-rdf-syntax-ns#"
   xmlns:svg="http://www.w3.org/2000/svg"
   xmlns="http://www.w3.org/2000/svg"
   id="svg8"
   version="1.1"
   viewBox="0 0 105.83334 52.916672"
   height="52.916672mm"
   width="105.83334mm">
  <defs
     id="defs2" />
  <metadata
     id="metadata5">
    <rdf:RDF>
      <cc:Work
         rdf:about="">
        <dc:format>image/svg+xml</dc:format>
        <dc:type
           rdf:resource="http://purl.org/dc/dcmitype/StillImage" />
        <dc:title></dc:title>
      </cc:Work>
    </rdf:RDF>
  </metadata>
  <g
     transform="translate(-54.428568,-152.6131)"
     id="layer1">
    <path
       id="path4556"
       d="M 54.428568,179.07144 V 152.6131 h 52.916672 52.91667 v 26.45834 26.45833 H 107.34524 54.428568 Z m 58.208342,21.65369 c 8.32742,-1.5888 15.63116,-8.98224 17.20898,-17.42036 0.41855,-2.23837 0.41843,-6.58854 -2.5e-4,-8.59896 -1.18889,-5.70891 -4.75856,-10.9334 -9.65372,-14.12899 -3.32098,-2.16797 -5.04486,-2.29896 -5.93072,-0.45067 -0.59951,1.25083 0.0816,2.27969 2.39696,3.6209 2.60064,1.50646 5.6156,4.58246 6.90304,7.0428 2.71531,5.18905 2.71668,11.35927 0.004,16.56317 -1.34688,2.58351 -4.56081,5.79744 -7.14432,7.14432 -5.20118,2.71157 -11.36199,2.71157 -16.563177,0 -2.583508,-1.34688 -5.797439,-4.56081 -7.14432,-7.14432 -3.446129,-6.61017 -2.454558,-14.62688 2.474524,-20.0061 1.394683,-1.52205 2.189771,-2.14427 5.330073,-4.17121 1.57789,-1.01847 1.93939,-2.30537 0.98753,-3.51547 -1.1428,-1.45282 -3.58878,-0.68808 -7.360741,2.30134 -3.438515,2.72515 -6.273356,7.17003 -7.452996,11.6859 -0.659873,2.52612 -0.792855,7.35433 -0.269626,9.78958 1.194303,5.55865 4.671595,10.77533 9.245413,13.87011 5.04823,3.41578 10.85299,4.58496 16.96964,3.41796 z m -3.31915,-12.55763 c 1.08544,-0.41652 1.20248,-1.31472 1.20248,-9.22835 0,-8.92156 -0.11281,-9.39271 -2.24896,-9.39271 -2.13614,0 -2.24895,0.47115 -2.24895,9.39271 0,8.93173 0.0873,9.31046 2.16117,9.37182 0.38828,0.0115 0.8987,-0.0531 1.13426,-0.14347 z"
       style="fill:#ffa726;fill-opacity:1;stroke:none;stroke-width:0.26458335;stroke-opacity:1" />
    <path
       transform="matrix(0.26458333,0,0,0.26458333,54.428568,152.6131)"
       id="path1441"
       d="m 187.99511,181.8559 c -10.63081,-1.9207 -22.78736,-6.96453 -32.22718,-13.37129 -10.6399,-7.22124 -21.57917,-20.14473 -27.77791,-32.81639 -6.45693,-13.19945 -8.71743,-25.86239 -7.56821,-42.395704 0.67472,-9.706873 1.31312,-12.98659 3.9639,-20.364358 5.73068,-15.949835 15.38248,-29.327772 28.05228,-38.882028 12.42423,-9.369076 20.50467,-11.870534 24.5856,-7.610958 2.49497,2.604185 3.10602,5.763296 1.65683,8.565728 -0.70844,1.369964 -4.12429,4.225094 -9.17665,7.670283 -16.46403,11.226772 -25.16209,22.54082 -30.30937,39.425063 -1.73091,5.677748 -1.91481,7.369043 -1.9253,17.705942 -0.0133,13.122332 1.03634,18.210682 5.89572,28.580312 3.27884,6.99687 7.19613,12.32097 14.08834,19.14785 12.75325,12.63236 27.50368,18.50976 46.34533,18.46659 19.24208,-0.0441 36.36973,-7.84005 49.02451,-22.31442 11.18816,-12.79685 16.33263,-26.45504 16.33263,-43.36189 0,-8.608257 -0.76495,-13.941883 -2.99397,-20.875584 -4.73446,-14.727245 -14.77582,-27.058603 -30.64791,-37.637395 -9.03764,-6.023608 -10.64494,-8.402889 -8.7968,-13.021846 2.37455,-5.934589 7.42831,-6.392657 16.51045,-1.496491 22.75899,12.269329 39.56147,36.826075 42.43518,62.01879 1.08972,9.553113 0.28761,22.795386 -1.90463,31.444126 -6.68615,26.37796 -28.94028,49.96951 -55.3166,58.64099 -10.72609,3.5263 -28.42645,4.6182 -40.24624,2.48268 z"
       style="fill:#ffffff;fill-opacity:1;stroke:#ffffff;stroke-width:0.71433072;stroke-miterlimit:4;stroke-dasharray:none;stroke-opacity:1" />
    <path
       transform="matrix(0.26458333,0,0,0.26458333,54.428568,152.6131)"
       id="path1443"
       d="m 198.25951,133.01464 c -0.77572,-0.77572 -1.65965,-2.3025 -1.96428,-3.39285 -0.73518,-2.63134 -0.71572,-56.218073 0.0217,-59.700871 0.88021,-4.157344 2.64688,-5.495873 7.25376,-5.495873 4.75821,0 6.48925,1.502489 7.32117,6.354535 0.74736,4.358907 0.72753,53.042209 -0.0234,57.446949 -0.82551,4.84216 -2.41631,6.19852 -7.26994,6.19852 -2.95932,0 -4.27654,-0.34798 -5.33898,-1.41041 z"
       style="fill:#ffffff;fill-opacity:1;stroke:#ffffff;stroke-width:0.71433072;stroke-miterlimit:4;stroke-dasharray:none;stroke-opacity:1" />
    <path
       transform="matrix(0.26458333,0,0,0.26458333,54.428568,152.6131)"
       id="path883"
       d="m 186.09849,181.59155 c -18.31921,-3.93575 -33.32196,-12.74053 -45.58565,-26.75321 -9.5928,-10.96089 -16.81344,-25.44318 -19.51282,-39.13652 -1.10798,-5.62049 -1.08408,-25.084547 0.0384,-31.276774 3.77988,-20.851909 17.80124,-41.895035 35.84356,-53.793683 8.77098,-5.784334 15.23748,-7.621537 19.25606,-5.470857 3.14842,1.684981 4.50927,7.551229 2.43781,10.50866 -0.60174,0.859094 -4.7374,4.16058 -9.19038,7.336637 -8.10258,5.779117 -16.36101,13.47061 -20.41228,19.010987 -3.10413,4.245093 -7.48762,13.342082 -9.42094,19.551113 -1.50763,4.841922 -1.66513,6.662368 -1.63755,18.928567 0.0289,12.87383 0.13005,13.85718 1.9671,19.13056 5.26871,15.12424 14.53941,27.15792 27.8685,36.17427 15.70085,10.6207 40.16877,13.01789 58.92534,5.77308 8.03238,-3.10254 13.91447,-6.81876 20.36074,-12.86362 10.59502,-9.93526 16.8036,-20.07928 19.8914,-32.5 2.23313,-8.98274 2.22056,-24.517538 -0.0266,-32.857143 -4.17207,-15.483488 -13.87544,-28.730129 -28.73961,-39.234122 -10.09594,-7.134454 -10.59992,-7.555565 -11.78504,-9.847348 -2.31776,-4.482041 1.4792,-10.561387 6.5963,-10.561387 8.51122,0 26.45001,12.944365 36.59272,26.404758 8.08345,10.727553 14.24865,25.303128 15.87188,37.523813 1.1959,9.003543 0.45271,24.706059 -1.5382,32.499999 -7.9213,31.00995 -35.5107,56.83987 -66.01507,61.80503 -8.94765,1.4564 -24.15007,1.28766 -31.78571,-0.35281 z"
       style="fill:#ffffff;fill-opacity:1;stroke:#ffffff;stroke-width:0.51023626;stroke-miterlimit:4;stroke-dasharray:none;stroke-opacity:1" />
    <path
       transform="matrix(0.26458333,0,0,0.26458333,54.428568,152.6131)"
       id="path885"
       d="m 197.88116,132.99311 c -0.71274,-0.78757 -1.54697,-2.95721 -1.85384,-4.82143 -0.80619,-4.89744 -0.76163,-51.901019 0.0539,-56.881049 0.94853,-5.79207 2.08541,-6.865585 7.27081,-6.865585 4.90359,0 6.6315,1.261463 7.52802,5.495873 0.31656,1.495127 0.57556,15.254127 0.57556,30.575551 0,34.25005 0.0797,33.92858 -8.41377,33.92858 -2.96071,0 -4.16797,-0.33498 -5.1607,-1.43194 z"
       style="fill:#ffffff;fill-opacity:1;stroke:#ffffff;stroke-width:0.51023626;stroke-miterlimit:4;stroke-dasharray:none;stroke-opacity:1" />
  </g>
</svg>
