<?xml version="1.0" encoding="UTF-8" standalone="no"?>
<svg
   xmlns:dc="http://purl.org/dc/elements/1.1/"
   xmlns:cc="http://creativecommons.org/ns#"
   xmlns:rdf="http://www.w3.org/1999/02/22-rdf-syntax-ns#"
   xmlns:svg="http://www.w3.org/2000/svg"
   xmlns="http://www.w3.org/2000/svg"
   width="105.83334mm"
   height="52.916672mm"
   viewBox="0 0 105.83333 52.916672"
   version="1.1"
   id="svg8">
  <defs
     id="defs2" />
  <metadata
     id="metadata5">
    <rdf:RDF>
      <cc:Work
         rdf:about="">
        <dc:format>image/svg+xml</dc:format>
        <dc:type
           rdf:resource="http://purl.org/dc/dcmitype/StillImage" />
        <dc:title></dc:title>
      </cc:Work>
    </rdf:RDF>
  </metadata>
  <g
     id="layer1"
     transform="translate(-81.642854,-161.68455)">
    <path
       style="fill:#000000;stroke-width:0.26458335"
       d=""
       id="path21" />
    <path
       style="fill:#b71c1c;fill-opacity:1;stroke-width:0.26458335"
       d="m 81.642854,188.14288 v -26.45833 h 52.916666 52.91667 v 26.45833 26.45834 H 134.55952 81.642854 Z m 59.170956,21.15735 c 3.99463,-1.02158 7.26656,-2.94611 10.16611,-5.97965 2.9591,-3.09582 4.50897,-5.81149 5.56661,-9.75374 0.80527,-3.00155 0.80819,-7.89334 0.006,-10.84791 -2.09121,-7.70682 -7.5809,-13.33494 -15.24661,-15.63105 -2.03491,-0.60952 -2.88152,-0.71569 -5.82083,-0.73001 -2.38502,-0.0116 -3.92631,0.1145 -5.02709,0.41134 -5.14388,1.38711 -9.03974,3.8332 -12.07275,7.58011 -1.8998,2.34697 -3.16161,4.77513 -4.10343,7.89645 -0.60962,2.02037 -0.70162,2.79356 -0.70162,5.89711 0,3.10538 0.0918,3.87622 0.70309,5.90219 1.17358,3.88972 2.88356,6.78891 5.62896,9.5436 5.47933,5.49786 13.33869,7.64556 20.90108,5.71156 z m -9.41535,-3.85631 c -0.93822,-0.20511 -2.72416,-0.86304 -3.96875,-1.46208 -1.85393,-0.89232 -2.67622,-1.50581 -4.54992,-3.3946 -1.83797,-1.85275 -2.50174,-2.74902 -3.38053,-4.56458 -2.5105,-5.1867 -2.50568,-10.69423 0.0138,-15.80517 1.57234,-3.18954 4.75321,-6.37638 7.90267,-7.9175 3.00967,-1.47271 5.48436,-1.97478 8.86355,-1.79828 4.75595,0.24843 8.07795,1.74915 11.54744,5.21658 1.84082,1.83972 2.49707,2.71982 3.36359,4.51086 2.5181,5.20479 2.51111,10.53949 -0.0207,15.84132 -0.87031,1.82248 -1.49533,2.66514 -3.35947,4.52928 -1.85666,1.85666 -2.71413,2.49388 -4.52929,3.36586 -3.74739,1.80022 -7.99341,2.32848 -11.8824,1.47831 z m 5.5487,-9.03487 c 0.49329,-0.62712 0.52278,-1.0964 0.52278,-8.31924 0,-8.88336 -0.0685,-9.19383 -2.03132,-9.20329 -0.59609,-0.003 -1.00024,0.19878 -1.38906,0.69309 -0.52628,0.66905 -0.54837,1.00776 -0.54837,8.40779 0,6.65388 0.0583,7.79385 0.42519,8.31769 0.841,1.20071 2.12336,1.24484 3.02078,0.10396 z"
       id="path858" />
  </g>
  <path
     transform="scale(0.26458332)"
     id="path5274"
     d="m 192.18963,181.76887 c -15.88936,-2.17425 -31.58892,-9.4136 -43.79232,-20.19343 -11.34177,-10.01871 -19.26837,-22.24832 -24.0969,-37.17805 -2.98229,-9.22118 -3.32888,-12.18157 -3.10846,-26.550622 0.17979,-11.719925 0.25886,-12.678475 1.38562,-16.79848 2.58192,-9.440728 6.67601,-18.806188 11.30249,-25.855042 10.64248,-16.214768 24.88254,-27.151963 43.77481,-33.621609 9.30884,-3.187808 11.07684,-3.423674 25.59571,-3.414683 12.00172,0.0074 13.15519,0.07973 17.15576,1.075252 17.00882,4.232566 30.52649,11.900055 41.98646,23.815548 6.07469,6.316149 10.05596,11.924481 13.94729,19.647263 4.46963,8.87048 7.16623,17.350368 8.20026,25.787028 0.80808,6.59312 0.31485,23.272755 -0.8439,28.538285 -3.7358,16.97603 -11.94255,31.12372 -25.269,43.56148 -6.127,5.71841 -11.4775,9.43421 -18.83375,13.0796 -7.18091,3.55851 -12.51124,5.41259 -20.31603,7.06664 -4.54919,0.96411 -6.90113,1.17421 -14.67268,1.3107 -5.0903,0.0894 -10.67721,-0.032 -12.41536,-0.26988 z m 21.70714,-15.77061 c 10.62151,-1.81584 22.32793,-6.74232 29.30867,-12.33412 4.28303,-3.43085 12.07962,-11.42043 14.97224,-15.34285 2.68335,-3.63866 6.51161,-11.57526 8.47612,-17.5724 2.59178,-7.912 3.17085,-11.72594 3.17085,-20.884321 0,-9.194172 -0.60437,-13.149035 -3.19073,-20.879374 C 263.22485,68.79584 259.37744,62.401298 252.15317,54.917588 238.04058,40.298192 226.61674,34.724309 207.83776,33.295361 c -15.90489,-1.21025 -30.674,2.769084 -43.17869,11.633907 -4.83629,3.428546 -13.3301,11.993155 -16.87141,17.012047 -4.89968,6.944023 -8.72242,15.863812 -10.7384,25.056436 -1.32252,6.030542 -1.20805,20.251009 0.21442,26.636569 1.90916,8.5704 6.39778,18.97404 10.71313,24.8307 2.78156,3.77505 10.78629,11.99665 14.9404,15.34517 6.8876,5.55191 18.98098,10.81459 28.55955,12.42826 5.53565,0.93258 16.23024,0.818 22.42001,-0.24019 z"
     style="fill:#ffffff;fill-opacity:1;stroke:#ffffff;stroke-width:0.32249698;stroke-miterlimit:4;stroke-dasharray:none;stroke-opacity:1" />
  <path
     transform="scale(0.26458332)"
     id="path5276"
     d="m 200.06862,132.93302 c -2.96478,-1.99797 -3.20924,-2.92646 -3.6922,-14.02359 -0.55373,-12.72339 -0.16625,-45.344329 0.57351,-48.282192 0.37906,-1.505387 1.05013,-2.5934 2.291,-3.714458 1.62999,-1.472595 1.96519,-1.58546 4.70868,-1.58546 5.16454,0 5.88614,1.497096 6.52814,13.544019 0.50853,9.542201 0.53606,35.868421 0.0461,44.075871 -0.27596,4.62261 -0.54928,6.26155 -1.24202,7.44767 -1.27205,2.17805 -3.52115,3.55547 -5.80551,3.55547 -1.22162,0 -2.43609,-0.36257 -3.4077,-1.01733 z"
     style="fill:#ffffff;fill-opacity:1;stroke:#ffffff;stroke-width:0.32249698;stroke-miterlimit:4;stroke-dasharray:none;stroke-opacity:1" />
</svg>
