<?xml version="1.0" encoding="UTF-8" standalone="no"?>
<svg
   xmlns:dc="http://purl.org/dc/elements/1.1/"
   xmlns:cc="http://creativecommons.org/ns#"
   xmlns:rdf="http://www.w3.org/1999/02/22-rdf-syntax-ns#"
   xmlns:svg="http://www.w3.org/2000/svg"
   xmlns="http://www.w3.org/2000/svg"
   id="svg8"
   version="1.1"
   viewBox="0 0 105.83334 52.916672"
   height="52.916672mm"
   width="105.83334mm">
  <defs
     id="defs2" />
  <metadata
     id="metadata5">
    <rdf:RDF>
      <cc:Work
         rdf:about="">
        <dc:format>image/svg+xml</dc:format>
        <dc:type
           rdf:resource="http://purl.org/dc/dcmitype/StillImage" />
        <dc:title></dc:title>
      </cc:Work>
    </rdf:RDF>
  </metadata>
  <g
     transform="translate(-124.73214,-275.83334)"
     id="layer1">
    <path
       id="path21"
       d=""
       style="fill:#000000;stroke-width:0.26458335" />
    <path
       id="path845"
       d="m 124.73214,302.29167 v -26.45833 h 52.91667 52.91667 v 26.45833 26.45834 h -52.91667 -52.91667 z m 57.73952,21.58561 c 13.63129,-2.6081 21.39417,-16.67938 16.37,-29.67288 -1.09959,-2.84376 -2.64145,-5.14774 -5.05047,-7.54685 -8.26255,-8.22858 -21.49488,-8.47878 -30.16002,-0.57027 -3.04258,2.7769 -4.84998,5.63115 -6.24011,9.85439 -0.67971,2.06499 -0.74098,2.58445 -0.74898,6.35 -0.008,3.92113 0.0283,4.21132 0.83545,6.61459 1.1572,3.44569 2.88237,6.27507 5.31662,8.71954 2.41683,2.42699 4.71313,3.96373 7.57862,5.07176 3.93219,1.52051 8.16207,1.93295 12.09889,1.17972 z m -6.68211,-4.12227 c -6.84187,-1.08383 -12.61954,-6.27254 -14.43708,-12.96542 -0.30747,-1.13224 -0.46703,-2.66891 -0.46703,-4.49792 0,-4.97976 1.61766,-8.91314 5.11255,-12.43129 3.41571,-3.43845 7.41132,-5.10562 12.31228,-5.13731 3.26535,-0.0211 4.8537,0.35004 8.05471,1.88215 2.07275,0.99209 2.84922,1.55088 4.55705,3.2795 1.66073,1.68093 2.28513,2.55709 3.23071,4.53332 1.50803,3.15171 1.88038,4.75176 1.86305,8.00593 -0.0373,7.00574 -4.02889,13.09557 -10.47014,15.97396 -0.92352,0.4127 -2.21796,0.88167 -2.87652,1.04216 -1.74098,0.42427 -5.19203,0.58225 -6.87958,0.31492 z m 3.90677,-8.60759 c 0.31777,-0.22258 0.70078,-0.84765 0.85115,-1.38907 0.39189,-1.41105 0.33419,-14.22338 -0.0693,-15.39525 -0.6657,-1.93327 -2.77805,-2.08826 -3.68883,-0.27067 -0.40589,0.81002 -0.46265,1.79196 -0.46302,8.0093 -2.6e-4,5.49113 0.0833,7.28655 0.37168,7.97663 0.59553,1.42531 1.85076,1.87285 2.99834,1.06906 z"
       style="fill:#ef5350;fill-opacity:1;stroke-width:0.26458335" />
    <path
       transform="matrix(0.26458333,0,0,0.26458333,124.73214,275.83334)"
       id="path829"
       d="m 185.57984,180.65261 c -29.60705,-6.5935 -52.07227,-27.60526 -62.06732,-58.0517 -1.75011,-5.3311 -2.07594,-8.88758 -2.06833,-22.57611 0.009,-15.782586 0.1057,-16.528523 3.38256,-26.033418 4.46864,-12.961768 10.56055,-22.960379 19.26697,-31.622722 17.75663,-17.666731 38.27077,-25.621244 63.14535,-24.485086 22.20634,1.014284 41.30727,10.028107 56.60596,26.712629 8.13759,8.874745 13.27911,17.669379 17.29538,29.584003 2.79957,8.305126 3.29718,11.363522 3.69803,22.728432 0.38392,10.885062 0.10805,14.617862 -1.61231,21.816092 -3.93342,16.45788 -11.33844,29.24999 -23.76534,41.05432 -9.28888,8.82353 -18.52937,14.36136 -30.94946,18.54802 -8.46969,2.85504 -11.13834,3.27392 -22.72844,3.56756 -9.27504,0.23498 -15.20879,-0.1298 -20.20305,-1.24202 z m 37.22691,-16.67938 c 23.89141,-8.0119 40.67143,-26.6596 45.53842,-50.60703 3.12878,-15.394841 1.41967,-28.549556 -5.59933,-43.096947 C 257.0619,58.488872 244.79001,46.028521 233.56209,40.637314 221.69754,34.940427 215.3345,33.446111 203.1967,33.506223 c -21.8588,0.108254 -38.39211,7.778477 -51.79714,24.030022 -10.5901,12.838881 -14.77198,24.976609 -14.79719,42.948235 -0.0179,12.75975 1.60446,19.66738 7.1001,30.23069 8.87372,17.05641 24.19619,29.16107 43.56959,34.41976 9.47244,2.57117 26.01611,2.03033 35.53469,-1.1617 z"
       style="fill:#ffffff;fill-opacity:1;stroke:#ffffff;stroke-width:0.72158301;stroke-miterlimit:4;stroke-dasharray:none;stroke-opacity:1" />
    <path
       transform="matrix(0.26458333,0,0,0.26458333,124.73214,275.83334)"
       id="path831"
       d="m 199.41961,132.7411 c -1.20921,-1.12655 -2.54499,-3.28575 -2.9684,-4.79823 -0.42341,-1.51248 -0.76984,-14.87666 -0.76984,-29.698176 0,-25.794394 0.0908,-27.070297 2.12065,-29.7995 3.09682,-4.163767 8.69617,-4.505116 11.20301,-0.68296 1.61641,2.464534 1.86722,5.72189 2.16116,28.067934 0.37972,28.866842 -0.0215,33.184182 -3.39799,36.560642 -2.93781,2.9378 -5.45773,3.04353 -8.34859,0.35029 z"
       style="fill:#ffffff;fill-opacity:1;stroke:#ffffff;stroke-width:0.72158301;stroke-miterlimit:4;stroke-dasharray:none;stroke-opacity:1" />
  </g>
</svg>
