<?xml version="1.0" encoding="UTF-8" standalone="no"?>
<svg
   xmlns:dc="http://purl.org/dc/elements/1.1/"
   xmlns:cc="http://creativecommons.org/ns#"
   xmlns:rdf="http://www.w3.org/1999/02/22-rdf-syntax-ns#"
   xmlns:svg="http://www.w3.org/2000/svg"
   xmlns="http://www.w3.org/2000/svg"
   width="105.83334mm"
   height="52.916672mm"
   viewBox="0 0 105.83334 52.916672"
   version="1.1"
   id="svg8">
  <defs
     id="defs2" />
  <metadata
     id="metadata5">
    <rdf:RDF>
      <cc:Work
         rdf:about="">
        <dc:format>image/svg+xml</dc:format>
        <dc:type
           rdf:resource="http://purl.org/dc/dcmitype/StillImage" />
        <dc:title></dc:title>
      </cc:Work>
    </rdf:RDF>
  </metadata>
  <g
     id="layer1"
     transform="translate(47.625007,-24.857176)">
    <path
       style="fill:#000000;stroke-width:0.26458335"
       d=""
       id="path21" />
    <path
       style="fill:#66bb6a;fill-opacity:1;stroke-width:0.26458335"
       d="M -47.625007,51.315506 V 24.857176 H 5.2916629 58.208333 v 26.45833 26.45834 H 5.2916629 -47.625007 Z m 54.1704299,22.3495 c 0.31777,-0.22258 0.70078,-0.84765 0.85115,-1.38907 0.39189,-1.41105 0.33419,-14.22338 -0.0693,-15.39525 -0.6657,-1.93327 -2.77805,-2.08827 -3.68883,-0.27067 -0.40589,0.81002 -0.46265,1.79196 -0.46302,8.00931 -2.6e-4,5.49112 0.0833,7.28654 0.37168,7.97662 0.59553,1.42531 1.85076,1.87286 2.99834,1.06906 z m -17.7109299,-4.20542 c 0.39295,-0.20723 3.1254799,-2.80346 6.0722699,-5.76942 4.98849996,-5.02093 5.35781996,-5.4587 5.35781996,-6.35091 0,-1.04384 -0.93534,-2.055 -1.90090996,-2.055 -1.02384,0 -2.04308,0.85742 -7.16107,6.02412 -5.0372699,5.08522 -5.2255199,5.31331 -5.2255199,6.33144 0,1.0398 0.41936,1.67659 1.32291,2.00882 0.62538,0.22995 0.77485,0.21153 1.5345,-0.18905 z m 35.99776,-0.24006 c 0.66829,-0.5362 0.85117,-1.47349 0.46291,-2.3724 -0.52135,-1.20701 -10.6811,-11.21145 -11.62249,-11.44482 -1.5238,-0.37774 -2.81987,0.91833 -2.44213,2.44213 0.22476,0.90669 10.20553,11.08021 11.39133,11.61133 0.80781,0.36182 1.56598,0.28078 2.21038,-0.23624 z M -1.1827271,53.313636 c 1.81398996,-0.75794 1.88095996,-2.76974 0.12155,-3.65136 -0.81002,-0.40589 -1.79196,-0.46266 -8.00931,-0.46302 -5.5879199,-3.2e-4 -7.2799599,0.0806 -8.0030499,0.38271 -1.81399,0.75794 -1.88096,2.76974 -0.12155,3.65136 0.81002,0.4059 1.79197,0.46266 8.0093099,0.46302 5.58792,2.7e-4 7.27997,-0.0806 8.00305,-0.38271 z m 29.8979201,0 c 1.81399,-0.75794 1.88096,-2.76974 0.12155,-3.65136 -0.81002,-0.40589 -1.79197,-0.46266 -8.00931,-0.46302 -5.58792,-3.2e-4 -7.27997,0.0806 -8.00305,0.38271 -1.81399,0.75794 -1.88096,2.76974 -0.12155,3.65136 0.81002,0.4059 1.79197,0.46266 8.00931,0.46302 5.58792,2.7e-4 7.27997,-0.0806 8.00305,-0.38271 z m -29.28295014,-6.84828 c 0.6683,-0.5362 0.85118,-1.47348 0.46291,-2.3724 -0.52134,-1.20701 -10.68108986,-11.21145 -11.62247986,-11.44482 -1.5238,-0.37774 -2.81987,0.91834 -2.44213,2.44213 0.22476,0.9067 10.2055199,11.08021 11.3913299,11.61133 0.80781,0.36182 1.56598,0.28079 2.21036996,-0.23624 z m 14.80225014,0.24006 c 0.39295,-0.20722 3.12548,-2.80346 6.07228,-5.76941 4.98849,-5.02094 5.35781,-5.45871 5.35781,-6.35091 0,-1.04384 -0.93534,-2.055 -1.90091,-2.055 -1.02384,0 -2.04308,0.85742 -7.16107,6.02412 -5.03727,5.08522 -5.22552,5.31331 -5.22552,6.33144 0,1.03979 0.41936,1.67659 1.32291,2.00882 0.62538,0.22994 0.77485,0.21153 1.5345,-0.18906 z m -7.6890701,-0.2925 c 0.31777,-0.22257 0.70078,-0.84765 0.85115,-1.38906 0.39189,-1.41106 0.33419,-14.22338 -0.0693,-15.39525 -0.6657,-1.93327 -2.77805,-2.08827 -3.68883,-0.27068 -0.40589,0.81002 -0.46265,1.79197 -0.46302,8.00931 -2.6e-4,5.49112 0.0833,7.28655 0.37168,7.97663 0.59553,1.4253 1.85076,1.87285 2.99834,1.06905 z"
       id="path871" />
  </g>
  <path
     transform="scale(0.26458333)"
     id="path5234"
     d="m 119.066,108.182 c -3.74151,-0.56783 -6.50997,-2.34854 -7.85147,-5.05018 -0.82427,-1.66001 -0.99427,-2.52466 -0.75117,-3.820525 0.40335,-2.150028 3.4383,-5.241683 5.88126,-5.99114 4.21262,-1.292361 54.35758,-1.271955 58.1362,0.02366 0.93735,0.321399 2.49716,1.263048 3.46625,2.092553 3.24619,2.778617 3.48499,6.476362 0.62283,9.644432 -2.98215,3.30088 -2.90307,3.29234 -31.527,3.408 -13.90519,0.0562 -26.4948,-0.0819 -27.9769,-0.3068 z"
     style="fill:#ffffff;fill-opacity:1;stroke:#ffffff;stroke-width:0.32249698;stroke-miterlimit:4;stroke-dasharray:none;stroke-opacity:1" />
  <path
     transform="scale(0.26458333)"
     id="path5236"
     d="m 171.32058,82.952076 c -0.80078,-0.192682 -1.9456,-0.671161 -2.54406,-1.063283 -4.88695,-3.20205 -35.04494,-33.701373 -40.62832,-41.088155 -1.25025,-1.654069 -1.64706,-2.609288 -1.64706,-3.96484 0,-3.652559 1.98735,-6.250724 5.50593,-7.198179 3.54739,-0.955213 5.03048,0.118003 20.60016,14.907079 9.79748,9.306272 23.81519,23.893686 26.02345,27.081083 2.51347,3.627937 1.56706,8.792845 -1.93939,10.584001 -1.71532,0.876212 -3.68359,1.148253 -5.37071,0.742294 z"
     style="fill:#ffffff;fill-opacity:1;stroke:#ffffff;stroke-width:0.32249698;stroke-miterlimit:4;stroke-dasharray:none;stroke-opacity:1" />
  <path
     transform="scale(0.26458333)"
     id="path5238"
     d="m 198.42832,82.437489 c -1.9023,-0.550483 -4.40169,-3.538913 -5.1695,-6.180985 -0.49216,-1.69354 -0.61772,-7.631351 -0.61772,-29.21361 V 19.954855 l 1.26941,-2.585043 c 1.54128,-3.138671 3.30464,-4.485879 6.24085,-4.768012 2.85474,-0.274304 5.26866,1.21338 6.67174,4.111764 1.46493,3.026133 1.97646,14.227508 1.72524,37.778541 -0.22394,20.993564 -0.34026,22.124169 -2.60313,25.302079 -1.00146,1.406415 -4.05274,3.151165 -5.40343,3.089729 -0.37246,-0.01693 -1.32352,-0.217833 -2.11346,-0.446424 z"
     style="fill:#ffffff;fill-opacity:1;stroke:#ffffff;stroke-width:0.32249698;stroke-miterlimit:4;stroke-dasharray:none;stroke-opacity:1" />
  <path
     transform="scale(0.26458333)"
     id="path5240"
     d="m 228.30702,83.155584 c -2.55785,-0.899156 -4.60089,-3.271351 -4.97689,-5.778723 -0.43333,-2.889594 0.0499,-4.504546 2.15513,-7.20297 1.85104,-2.372568 18.94146,-19.828755 29.9098,-30.549914 11.14614,-10.894962 14.32683,-12.312046 18.72209,-8.341199 3.19287,2.884565 3.47494,6.158028 0.86094,9.991173 -1.67923,2.462398 -26.71907,27.900389 -35.06176,35.619275 -7.14617,6.611816 -8.51488,7.350132 -11.60931,6.262358 z"
     style="fill:#ffffff;fill-opacity:1;stroke:#ffffff;stroke-width:0.32249698;stroke-miterlimit:4;stroke-dasharray:none;stroke-opacity:1" />
  <path
     transform="scale(0.26458333)"
     id="path5242"
     d="m 232.22475,108.18326 c -5.23197,-0.67901 -8.65814,-3.68817 -8.65814,-7.60433 0,-3.300349 2.10354,-5.899542 5.86908,-7.252007 3.43028,-1.232052 53.98075,-1.30233 57.74191,-0.08028 4.03195,1.310037 6.63407,4.608177 6.25926,7.933497 -0.47168,4.18471 -3.37158,6.30176 -9.61114,7.01653 -4.76284,0.5456 -47.37892,0.53452 -51.60097,-0.0134 z"
     style="fill:#ffffff;fill-opacity:1;stroke:#ffffff;stroke-width:0.32249698;stroke-miterlimit:4;stroke-dasharray:none;stroke-opacity:1" />
  <path
     transform="scale(0.26458333)"
     id="path5244"
     d="m 265.77881,168.32111 c -3.20093,-1.46031 -22.23572,-19.92008 -35.21959,-34.15563 -7.56487,-8.29416 -8.07029,-9.01065 -8.06175,-11.42853 0.0144,-4.08748 2.59026,-6.86508 6.67111,-7.19371 1.98879,-0.16016 2.54218,-0.007 4.10458,1.1348 7.85653,5.74236 39.33832,37.15094 41.87359,41.77622 1.15174,2.1012 1.04446,5.68966 -0.22573,7.5505 -2.04161,2.99098 -5.65608,3.90677 -9.14221,2.31635 z"
     style="fill:#ffffff;fill-opacity:1;stroke:#ffffff;stroke-width:0.32249698;stroke-miterlimit:4;stroke-dasharray:none;stroke-opacity:1" />
  <path
     transform="scale(0.26458333)"
     id="path5246"
     d="m 198.05032,185.23994 c -1.89869,-0.82731 -4.13283,-3.51164 -4.82589,-5.79833 -0.84474,-2.78716 -0.84474,-54.78678 0,-57.57394 0.67297,-2.2204 2.78173,-4.80559 4.75038,-5.82362 1.75449,-0.90728 4.74697,-0.59041 6.55019,0.69359 2.48252,1.76771 3.21687,4.12459 3.69236,11.85042 0.54922,8.92389 0.56162,39.28597 0.0187,45.84711 -0.5684,6.86934 -2.2182,9.92984 -5.92603,10.99324 -1.96976,0.56492 -2.59412,0.53729 -4.25974,-0.18847 z"
     style="fill:#ffffff;fill-opacity:1;stroke:#ffffff;stroke-width:0.32249698;stroke-miterlimit:4;stroke-dasharray:none;stroke-opacity:1" />
  <path
     transform="scale(0.26458333)"
     id="path5248"
     d="m 131.69301,168.97387 c -3.10752,-1.39282 -4.28893,-3.40893 -4.28893,-7.31919 0,-2.04297 0.25009,-2.84871 1.40547,-4.528 1.85862,-2.70141 23.38752,-24.93584 31.04102,-32.05829 7.20516,-6.70521 10.09023,-8.93263 12.3703,-9.55052 4.1011,-1.11138 8.45635,2.57263 8.45635,7.15306 0,2.24536 -0.41706,3.0976 -3.08951,6.31328 -2.87425,3.45849 -24.68813,25.48133 -32.46243,32.7734 -8.19442,7.68612 -10.09995,8.70984 -13.43227,7.21626 z"
     style="fill:#ffffff;fill-opacity:1;stroke:#ffffff;stroke-width:0.32249698;stroke-miterlimit:4;stroke-dasharray:none;stroke-opacity:1" />
</svg>
