<?xml version="1.0" encoding="UTF-8" standalone="no"?>
<!-- Created with Inkscape (http://www.inkscape.org/) -->

<svg
   xmlns:dc="http://purl.org/dc/elements/1.1/"
   xmlns:cc="http://creativecommons.org/ns#"
   xmlns:rdf="http://www.w3.org/1999/02/22-rdf-syntax-ns#"
   xmlns:svg="http://www.w3.org/2000/svg"
   xmlns="http://www.w3.org/2000/svg"
   xmlns:sodipodi="http://sodipodi.sourceforge.net/DTD/sodipodi-0.dtd"
   xmlns:inkscape="http://www.inkscape.org/namespaces/inkscape"
   width="105.83334mm"
   height="52.916672mm"
   viewBox="0 0 105.83334 52.916672"
   version="1.1"
   id="svg8"
   inkscape:version="0.92.4 (5da689c313, 2019-01-14)"
   sodipodi:docname="start_pressed.svg">
  <defs
     id="defs2" />
  <sodipodi:namedview
     id="base"
     pagecolor="#ffffff"
     bordercolor="#666666"
     borderopacity="1.0"
     inkscape:pageopacity="0.0"
     inkscape:pageshadow="2"
     inkscape:zoom="1.4"
     inkscape:cx="183.7451"
     inkscape:cy="95.703489"
     inkscape:document-units="mm"
     inkscape:current-layer="layer1"
     showgrid="false"
     inkscape:window-width="1366"
     inkscape:window-height="705"
     inkscape:window-x="-8"
     inkscape:window-y="-8"
     inkscape:window-maximized="1" />
  <metadata
     id="metadata5">
    <rdf:RDF>
      <cc:Work
         rdf:about="">
        <dc:format>image/svg+xml</dc:format>
        <dc:type
           rdf:resource="http://purl.org/dc/dcmitype/StillImage" />
        <dc:title></dc:title>
      </cc:Work>
    </rdf:RDF>
  </metadata>
  <g
     inkscape:label="Layer 1"
     inkscape:groupmode="layer"
     id="layer1"
     transform="translate(-23.43452,-131.44646)">
    <path
       style="fill:#000000;stroke-width:0.26458335"
       d=""
       id="path21"
       inkscape:connector-curvature="0" />
    <path
       style="fill:#1b5e20;fill-opacity:1;stroke-width:0.26458335;stroke:none;stroke-opacity:1"
       d="m 23.43452,157.9048 v -26.45834 h 52.91667 52.91667 v 26.45834 26.45833 H 76.35119 23.43452 Z m 54.484967,21.79244 c 0.526364,-0.66916 0.54837,-1.00749 0.54837,-8.43098 0,-7.4235 -0.02201,-7.76183 -0.54837,-8.43099 -0.75837,-0.96411 -2.11364,-0.96411 -2.87201,0 -0.526365,0.66916 -0.54837,1.00749 -0.54837,8.43099 0,7.42349 0.02201,7.76182 0.54837,8.43098 0.397724,0.50563 0.792215,0.69714 1.436005,0.69714 0.643789,0 1.03828,-0.19151 1.436005,-0.69714 z m -17.760888,-3.9127 c 1.058259,-0.55768 10.556169,-10.2202 10.875939,-11.06443 0.505693,-1.33509 -0.357227,-2.58198 -1.786882,-2.58198 -0.862568,0 -1.349348,0.41048 -6.196894,5.22552 -6.362904,6.32024 -6.692244,6.82045 -5.364723,8.14796 0.738714,0.73872 1.441473,0.81629 2.47256,0.27293 z m 35.688561,-0.19878 c 0.768882,-0.72233 0.784942,-1.76806 0.04243,-2.76247 -0.880986,-1.17985 -8.137206,-8.49644 -9.574134,-9.65378 -2.032418,-1.63697 -3.878845,-1.26152 -3.878845,0.78872 0,0.87675 0.4029,1.34724 5.629238,6.57358 6.093839,6.09384 6.437094,6.31678 7.781315,5.05395 z M 70.362383,159.47309 c 0.96411,-0.75837 0.96411,-2.11364 0,-2.87201 -0.669163,-0.52636 -1.007494,-0.54837 -8.430986,-0.54837 -7.423491,0 -7.761822,0.022 -8.430985,0.54837 -0.96411,0.75837 -0.96411,2.11364 0,2.87201 0.669163,0.52637 1.007494,0.54837 8.430985,0.54837 7.423492,0 7.761823,-0.022 8.430986,-0.54837 z m 29.897917,0 c 0.50563,-0.39772 0.69714,-0.79221 0.69714,-1.436 0,-0.64379 -0.19151,-1.03828 -0.69714,-1.43601 -0.669162,-0.52636 -1.007492,-0.54837 -8.430984,-0.54837 -7.423492,0 -7.761822,0.022 -8.430986,0.54837 -0.505626,0.39773 -0.69714,0.79222 -0.69714,1.43601 0,0.64379 0.191514,1.03828 0.69714,1.436 0.669164,0.52637 1.007494,0.54837 8.430986,0.54837 7.423492,0 7.761822,-0.022 8.430984,-0.54837 z m -29.813142,-6.6415 c 0.768882,-0.72233 0.784942,-1.76806 0.04243,-2.76247 -0.880986,-1.17985 -8.137205,-8.49644 -9.574134,-9.65378 -2.032418,-1.63697 -3.878845,-1.26152 -3.878845,0.78872 0,0.87675 0.4029,1.34724 5.629239,6.57358 6.093839,6.09384 6.437093,6.31678 7.781314,5.05395 z m 15.111443,0.19878 c 1.058259,-0.55768 10.556169,-10.2202 10.875939,-11.06442 0.505693,-1.3351 -0.357227,-2.58199 -1.786882,-2.58199 -0.862568,0 -1.349349,0.41048 -6.196894,5.22552 -6.362904,6.32024 -6.692244,6.82045 -5.364724,8.14797 0.738714,0.73871 1.441474,0.81628 2.472561,0.27292 z m -7.639114,-0.58522 c 0.526364,-0.66916 0.54837,-1.00749 0.54837,-8.43098 0,-7.42349 -0.02201,-7.76182 -0.54837,-8.43099 -0.75837,-0.96411 -2.11364,-0.96411 -2.87201,0 -0.526365,0.66917 -0.54837,1.0075 -0.54837,8.43099 0,7.42349 0.02201,7.76182 0.54837,8.43098 0.397724,0.50563 0.792215,0.69715 1.436005,0.69715 0.643789,0 1.03828,-0.19152 1.436005,-0.69715 z"
       id="path884"
       inkscape:connector-curvature="0" />
    <path
       style="fill:#ffffff;fill-opacity:1;stroke:#ffffff;stroke-width:0.71433072;stroke-miterlimit:4;stroke-dasharray:none;stroke-opacity:1"
       d="m 128.36653,107.31219 c -13.00579,-0.37235 -13.02376,-0.37514 -14.96428,-2.31761 -2.64465,-2.6473 -2.6573,-6.308293 -0.0309,-8.934732 1.84681,-1.846805 2.29621,-1.933101 13.17858,-2.53062 15.90133,-0.873095 46.92979,-0.0519 49.56696,1.311831 4.71955,2.440579 4.76045,8.911541 0.0713,11.278761 -2.30116,1.16169 -27.20498,1.78263 -47.82168,1.19237 z"
       id="path1489"
       inkscape:connector-curvature="0"
       transform="matrix(0.26458333,0,0,0.26458333,23.43452,131.44646)" />
    <path
       style="fill:#ffffff;fill-opacity:1;stroke:#ffffff;stroke-width:0.71433072;stroke-miterlimit:4;stroke-dasharray:none;stroke-opacity:1"
       d="m 132.02233,168.02505 c -1.88499,-0.76162 -4.56294,-4.0981 -4.56294,-5.685 0,-0.65582 0.92571,-2.6521 2.05713,-4.43617 2.47164,-3.89736 21.5667,-23.64766 32.80551,-33.93122 7.28897,-6.66943 8.34225,-7.39042 10.79653,-7.39042 5.11816,0 8.48642,4.77085 6.30613,8.93208 -1.52408,2.90882 -20.53439,23.07315 -31.05805,32.94344 -10.74898,10.08162 -12.51413,11.11486 -16.34431,9.56729 z"
       id="path1491"
       inkscape:connector-curvature="0"
       transform="matrix(0.26458333,0,0,0.26458333,23.43452,131.44646)" />
    <path
       style="fill:#ffffff;fill-opacity:1;stroke:#ffffff;stroke-width:0.71433072;stroke-miterlimit:4;stroke-dasharray:none;stroke-opacity:1"
       d="m 196.02671,182.6493 c -2.43109,-2.58777 -2.74875,-6.30187 -2.74875,-32.13848 0,-25.83662 0.31766,-29.55072 2.74875,-32.13849 3.10289,-3.30288 8.61386,-2.15378 10.42172,2.17304 1.48319,3.54977 1.48319,56.38112 0,59.93089 -1.80786,4.32682 -7.31883,5.47592 -10.42172,2.17304 z"
       id="path1493"
       inkscape:connector-curvature="0"
       transform="matrix(0.26458333,0,0,0.26458333,23.43452,131.44646)" />
    <path
       style="fill:#ffffff;fill-opacity:1;stroke:#ffffff;stroke-width:0.71433072;stroke-miterlimit:4;stroke-dasharray:none;stroke-opacity:1"
       d="m 263.77353,165.76983 c -5.72931,-4.43918 -38.0631,-37.04207 -39.49354,-39.82223 -1.40395,-2.72866 -1.081,-5.99157 0.79859,-8.06849 1.48478,-1.64066 5.25377,-1.68298 8.70143,-0.0977 2.69127,1.23748 31.78108,29.4296 38.04775,36.87362 2.91124,3.4582 3.48877,4.62015 3.48877,7.01923 0,2.22526 -0.47187,3.34687 -2.08791,4.96292 -2.83694,2.83694 -4.92097,2.64576 -9.45509,-0.86736 z"
       id="path1495"
       inkscape:connector-curvature="0"
       transform="matrix(0.26458333,0,0,0.26458333,23.43452,131.44646)" />
    <path
       style="fill:#ffffff;fill-opacity:1;stroke:#ffffff;stroke-width:0.71433072;stroke-miterlimit:4;stroke-dasharray:none;stroke-opacity:1"
       d="m 241.26484,107.32191 c -12.49922,-0.36835 -13.0485,-0.4467 -14.82143,-2.11418 -2.58792,-2.43399 -2.58724,-6.961027 0.001,-9.393833 1.77967,-1.672527 2.36292,-1.753521 17.0822,-2.372115 8.98868,-0.37776 21.39366,-0.37776 30.243,0 14.46804,0.61761 15.06914,0.702249 16.84637,2.372115 1.40708,1.322076 1.84299,2.433009 1.84299,4.696923 0,3.58655 -2.15367,5.97757 -5.79043,6.4286 -4.35334,0.53988 -32.12461,0.77384 -45.40412,0.38249 z"
       id="path1497"
       inkscape:connector-curvature="0"
       transform="matrix(0.26458333,0,0,0.26458333,23.43452,131.44646)" />
    <path
       style="fill:#ffffff;fill-opacity:1;stroke:#ffffff;stroke-width:0.71433072;stroke-miterlimit:4;stroke-dasharray:none;stroke-opacity:1"
       d="m 226.1238,80.479444 c -3.15757,-2.656918 -3.36098,-4.13731 -1.10281,-8.026191 2.39466,-4.123959 37.46699,-39.263625 41.08074,-41.159627 4.59479,-2.410715 9.92909,0.602531 9.92909,5.60876 0,2.120746 -0.83415,3.475934 -5.17858,8.413366 -7.55209,8.582932 -32.93767,33.867204 -35.68405,35.541652 -3.23295,1.971101 -6.4105,1.838313 -9.04439,-0.37796 z"
       id="path1499"
       inkscape:connector-curvature="0"
       transform="matrix(0.26458333,0,0,0.26458333,23.43452,131.44646)" />
    <path
       style="fill:#ffffff;fill-opacity:1;stroke:#ffffff;stroke-width:0.71433072;stroke-miterlimit:4;stroke-dasharray:none;stroke-opacity:1"
       d="m 196.05239,79.570849 c -1.82134,-1.821334 -2.05906,-2.648143 -2.51583,-8.75 -0.27743,-3.706233 -0.39222,-16.863605 -0.25508,-29.238605 0.22996,-20.751962 0.35702,-22.678001 1.63546,-24.791155 2.67497,-4.421519 7.66895,-4.723638 10.71327,-0.648118 1.41785,1.898121 1.4799,2.98752 1.6858,29.597821 0.11758,15.194942 0.0159,28.707722 -0.2259,30.028401 -1.03596,5.6577 -7.09485,7.744528 -11.03772,3.801656 z"
       id="path1501"
       inkscape:connector-curvature="0"
       transform="matrix(0.26458333,0,0,0.26458333,23.43452,131.44646)" />
    <path
       style="fill:#ffffff;fill-opacity:1;stroke:#ffffff;stroke-width:0.71433072;stroke-miterlimit:4;stroke-dasharray:none;stroke-opacity:1"
       d="m 169.4033,80.895331 c -3.84861,-2.440716 -28.92907,-26.807383 -36.69349,-35.649191 -4.47724,-5.098493 -5.25042,-6.363623 -5.25042,-8.591067 0,-5.58264 3.97754,-7.650026 9.78618,-5.086516 2.63673,1.163656 7.57544,5.668299 21.39362,19.513299 9.88103,9.900214 18.63876,19.125388 19.46161,20.500388 2.19474,3.667434 1.94086,6.132016 -0.92713,9 -1.33571,1.335715 -2.87992,2.428572 -3.43158,2.428572 -0.55166,0 -2.50411,-0.951969 -4.33879,-2.115485 z"
       id="path1503"
       inkscape:connector-curvature="0"
       transform="matrix(0.26458333,0,0,0.26458333,23.43452,131.44646)" />
  </g>
</svg>
