<?xml version="1.0" encoding="UTF-8" standalone="no"?>
<svg
        xmlns:dc="http://purl.org/dc/elements/1.1/"
        xmlns:cc="http://creativecommons.org/ns#"
        xmlns:rdf="http://www.w3.org/1999/02/22-rdf-syntax-ns#"
        xmlns:sodipodi="http://sodipodi.sourceforge.net/DTD/sodipodi-0.dtd"
        xmlns:inkscape="http://www.inkscape.org/namespaces/inkscape"
        xmlns="http://www.w3.org/2000/svg"
        width="60mm"
        height="40mm"
        viewBox="0 0 60 40"
        version="1.1"
        id="svg8"
        sodipodi:docname="ss_hibernate.svg"
        inkscape:version="0.92.4 (5da689c313, 2019-01-14)">
    <sodipodi:namedview
            pagecolor="#ffffff"
            bordercolor="#666666"
            borderopacity="1"
            objecttolerance="10"
            gridtolerance="10"
            guidetolerance="10"
            inkscape:pageopacity="0"
            inkscape:pageshadow="2"
            inkscape:window-width="1366"
            inkscape:window-height="705"
            id="namedview4870"
            showgrid="false"
            inkscape:zoom="0.88635417"
            inkscape:cx="57.995073"
            inkscape:cy="109.09796"
            inkscape:window-x="-8"
            inkscape:window-y="-8"
            inkscape:window-maximized="1"
            inkscape:current-layer="layer1"
            showguides="true"
            inkscape:guide-bbox="true"
            inkscape:snap-object-midpoints="true"
            inkscape:snap-center="true">
        <sodipodi:guide
                position="30,20"
                orientation="1,0"
                id="guide4910"
                inkscape:locked="false"
                inkscape:label=""
                inkscape:color="rgb(0,0,255)"/>
        <sodipodi:guide
                position="30.000001,20"
                orientation="0,1"
                id="guide4912"
                inkscape:locked="false"/>
        <sodipodi:guide
                position="21.471558,32.149833"
                orientation="0,1"
                id="guide4943"
                inkscape:locked="false"/>
    </sodipodi:namedview>
    <defs
            id="defs2"/>
    <metadata
            id="metadata5">
        <rdf:RDF>
            <cc:Work
                    rdf:about="">
                <dc:format>image/svg+xml</dc:format>
                <dc:type
                        rdf:resource="http://purl.org/dc/dcmitype/StillImage"/>
                <dc:title></dc:title>
            </cc:Work>
        </rdf:RDF>
    </metadata>
    <g
            id="layer1"
            transform="translate(30.000002,-276.99997)">
        <rect
                style="display:inline;fill:#ffa726;fill-opacity:1;stroke:none;stroke-width:0.18900001;stroke-miterlimit:4;stroke-dasharray:none;stroke-opacity:1"
                id="rect4626"
                width="60"
                height="40"
                x="-30.000002"
                y="276.99997"/>
        <path
                style="fill:#ffffff;fill-opacity:1;stroke:none;stroke-width:0.71433073;stroke-miterlimit:4;stroke-dasharray:none;stroke-opacity:1"
                d="m 84.244141,28.693359 a 5.3811603,5.3811603 0 0 0 -3.087891,0.982422 l -0.0039,-0.0059 c -0.04309,0.0322 -0.08395,0.0673 -0.126953,0.09961 a 5.3811603,5.3811603 0 0 0 -0.207032,0.160157 c -2.351097,1.783093 -4.571151,3.738077 -6.615234,5.876953 -4.997438,5.229191 -9.017456,11.45384 -11.753906,18.359375 -2.619101,6.609401 -4.062304,13.843295 -4.0625,21.423828 -5.7e-5,7.488619 1.437084,14.82402 4.154297,21.615234 2.738524,6.844482 6.777676,13.135852 11.955078,18.472652 5.136167,5.2943 11.183039,9.4343 17.761718,12.25586 6.632708,2.84472 13.805592,4.34961 21.128912,4.34961 7.32332,0 14.49623,-1.50489 21.1289,-4.34961 6.57869,-2.82156 12.62556,-6.96156 17.76172,-12.25586 5.17741,-5.3368 9.21656,-11.62817 11.95508,-18.472652 2.71722,-6.791213 4.15436,-14.126615 4.1543,-21.615234 -2e-4,-7.580512 -1.44342,-14.814441 -4.0625,-21.423828 -2.73646,-6.905577 -6.75644,-13.130161 -11.75391,-18.359375 -2.04438,-2.139185 -4.26563,-4.093723 -6.61719,-5.876953 a 5.3811603,5.3811603 0 0 0 -0.20703,-0.160157 c -0.043,-0.03232 -0.0839,-0.06741 -0.12695,-0.09961 l -0.004,0.0059 a 5.3811603,5.3811603 0 0 0 -3.08789,-0.982422 5.3811603,5.3811603 0 0 0 -5.38086,5.38086 5.3811603,5.3811603 0 0 0 2.29297,4.398437 l -0.008,0.01172 c 5.38808,3.7892 9.92906,8.702623 13.24024,14.425781 3.85976,6.671393 6.0682,14.417904 6.06835,22.679688 1.5e-4,6.014385 -1.19349,11.906545 -3.45117,17.357422 -2.25768,5.450877 -5.57931,10.459993 -9.83203,14.712893 -4.25273,4.25291 -9.26406,7.57412 -14.71484,9.83203 -5.45078,2.25792 -11.34108,3.45301 -17.35547,3.45312 -6.01456,1.5e-4 -11.90642,-1.19533 -17.357427,-3.45312 -5.451001,-2.2578 -10.461911,-5.57715 -14.714844,-9.83008 C 77.061246,103.40917 73.7419,98.398268 71.484101,92.947267 69.226302,87.496266 68.030825,81.6044 68.030976,75.589845 c 1.08e-4,-6.014386 1.195211,-11.904688 3.453125,-17.355469 2.257913,-5.450781 5.579126,-10.462122 9.832031,-14.714844 1.867313,-1.867232 3.886969,-3.54418 6.019532,-5.041015 l -0.0039,-0.0059 A 5.3811603,5.3811603 0 0 0 89.625,34.074219 5.3811603,5.3811603 0 0 0 84.244141,28.693359 Z"
                transform="matrix(0.26458333,0,0,0.26458333,-30.000002,276.99997)"
                id="path4654"
                inkscape:connector-curvature="0"/>
        <rect
                style="display:inline;fill:#ffffff;fill-opacity:1;stroke:none;stroke-width:0.18900001;stroke-miterlimit:4;stroke-dasharray:none;stroke-opacity:1"
                id="rect4658"
                width="4"
                height="16"
                x="-2"
                y="289"
                ry="2"/>
        <path
                id="path4903"
                style="fill:none;fill-opacity:1;stroke:#000000;stroke-width:1px;stroke-linecap:butt;stroke-linejoin:miter;stroke-opacity:1"
                d="m 105.82354,18.898438 h 7.56318 m -14.769818,1.57358 -6.558759,2.846871 m -6.741635,2.92625 6.741635,-2.92625 m -12.79876,7.197786 -5.056229,5.290707 m -4.997438,5.229191 4.997438,-5.229191 m -9.017121,11.453989 -2.73645,6.905535 m -2.619101,6.609401 2.619101,-6.609401 m -4.062668,13.842405 -1.96e-4,7.580533 m -5.7e-5,7.488619 5.7e-5,-7.488619 m 1.437264,14.82449 2.717213,6.791214 m 2.738524,6.844482 -2.738524,-6.844482 m 6.777097,13.135722 5.177402,5.3368 m 5.136167,5.2943 -5.136167,-5.2943 m 11.183589,9.43335 6.578682,2.82156 m 6.632708,2.84472 -6.632708,-2.84472 m 13.805434,4.35022 h 7.32332 m 7.32332,0 h -7.32332 m 14.49605,-1.5055 6.6327,-2.84472 m 6.57869,-2.82156 -6.57869,2.82156 m 12.62611,-6.96061 5.13616,-5.2943 m 5.17741,-5.3368 -5.17741,5.3368 m 9.21598,-11.62804 2.73852,-6.844483 m 2.71722,-6.791213 -2.71722,6.791213 m 4.15454,-14.127084 -6e-5,-7.488619 m -2e-4,-7.580512 2e-4,7.580512 m -1.44376,-14.813498 -2.61908,-6.609387 m -2.73646,-6.905577 2.73646,6.905577 m -6.75617,-13.130411 -4.99747,-5.229214 m -5.05645,-5.290924 5.05645,5.290924 m -11.11388,-9.56259 -6.74198,-2.926251 m -6.55851,-2.846621 6.55851,2.846621 m -13.76483,-4.420055 h -7.56283 m 0,0 v 0 m 0,0 v 0 m 8.26202,11.33804 -8.26202,-1.5e-4 m 16.00803,2.209466 6.67153,3.859994 m 6.88311,3.982421 -6.88311,-3.982421 m 12.6225,9.721888 3.98232,6.883183 m 3.85979,6.671393 -3.85979,-6.671393 m 6.06898,14.417201 1.5e-4,8.261784 m 1.5e-4,6.014385 -1.5e-4,-6.014385 m -1.19431,11.905633 -2.25768,5.450877 m -2.25768,5.450877 2.25768,-5.450877 m -5.57857,10.461386 -4.25272,4.2529 m -4.25273,4.25291 4.25273,-4.25291 m -9.26309,7.57402 -5.45078,2.25791 m -5.45078,2.25792 5.45078,-2.25792 m -11.34197,3.45263 -6.01439,1.1e-4 m -6.01456,1.5e-4 6.01456,-1.5e-4 m -11.90596,-1.19438 -5.451003,-2.25779 m -5.451001,-2.2578 5.451001,2.2578 m -10.461597,-5.57887 -4.252933,-4.25293 m -4.252933,-4.25294 4.252933,4.25294 m -7.574002,-9.263532 -2.257799,-5.451001 m -2.257799,-5.451001 2.257799,5.451001 m -3.452327,-11.342408 1.51e-4,-6.014555 m 1.08e-4,-6.014386 -1.08e-4,6.014386 m 1.194822,-11.905583 2.257914,-5.450781 m 2.257913,-5.450781 -2.257913,5.450781 m 5.579026,-10.461145 4.252905,-4.252722 m 4.252905,-4.252722 -4.252905,4.252722 m 9.263412,-7.573618 5.450878,-2.257679 m 5.450883,-2.257679 -5.450883,2.257679 m 11.342123,-3.452139 6.01439,1.51e-4 m 0,0 v 0 m 0,0 v 0"
                inkscape:connector-curvature="0"/>
    </g>
</svg>
